<?xml version="1.0" ?><!DOCTYPE svg  PUBLIC '-//W3C//DTD SVG 1.1//EN'  'http://www.w3.org/Graphics/SVG/1.1/DTD/svg11.dtd'><svg enable-background="new 0 0 50 50" height="50px" id="Layer_1" version="1.1" viewBox="0 0 50 50" width="50px" xml:space="preserve" xmlns="http://www.w3.org/2000/svg" xmlns:xlink="http://www.w3.org/1999/xlink"><g><path d="M40.378,0.878H9.62c-5.064,0-9.17,4.031-9.17,9.01v30.227c0,4.973,4.105,9.008,9.17,9.008h30.758   c5.064,0,9.172-4.035,9.172-9.008V9.888C49.55,4.909,45.442,0.878,40.378,0.878z M39.522,12.722h-3.951c0,0-1.72-0.402-1.72,2.232   c0,2.632,0,3.543,0,3.543h5.671l-0.604,5.857h-5.066v18.147h-7.696V24.354h-3.645V18.09l3.863,0.016l0.082-5.176   c0,0-0.246-6.021,4.935-6.333c4.256-0.303,8.132-0.186,8.132-0.186V12.722z" fill="#404041"/></g></svg>